HIERARCHY
ROOT Hips
{
	OFFSET 0.000000 100.481300 0.000000
	CHANNELS 6 Xposition Yposition Zposition Xrotation Yrotation Zrotation
	JOINT Spine
	{
		OFFSET -0.279200 12.230698 -2.892100
		CHANNELS 3 Xrotation Yrotation Zrotation
		JOINT Spine1
		{
			OFFSET -0.325700 14.269203 -3.374200
			CHANNELS 3 Xrotation Yrotation Zrotation
			JOINT Spine2
			{
				OFFSET -0.372300 16.307602 -0.352600
				CHANNELS 3 Xrotation Yrotation Zrotation
				JOINT Neck
				{
					OFFSET -0.418800 17.814194 8.416900
					CHANNELS 3 Xrotation Yrotation Zrotation
					JOINT Head
					{
						OFFSET 0.000000 7.031097 3.806800
						CHANNELS 3 Xrotation Yrotation Zrotation
						JOINT HeadTop_End
						{
							OFFSET 0.000000 24.646606 12.978600
							CHANNELS 3 Xrotation Yrotation Zrotation
							End Site
							{
								OFFSET 0.000000 27.854965 0.000000
							}
						}
					}
				}
				JOINT LeftShoulder
				{
					OFFSET 16.952999 14.495407 -7.737500
					CHANNELS 3 Xrotation Yrotation Zrotation
					JOINT LeftArm
					{
						OFFSET 9.308998 -2.777710 0.208600
						CHANNELS 3 Xrotation Yrotation Zrotation
						JOINT LeftForeArm
						{
							OFFSET 29.972298 0.000000 0.000000
							CHANNELS 3 Xrotation Yrotation Zrotation
							JOINT LeftHand
							{
								OFFSET 26.026505 0.000000 0.000000
								CHANNELS 3 Xrotation Yrotation Zrotation
								JOINT LeftHandThumb1
								{
									OFFSET 12.240501 -7.147949 9.207150
									CHANNELS 3 Xrotation Yrotation Zrotation
									JOINT LeftHandThumb2
									{
										OFFSET 4.138618 -2.389435 2.389433
										CHANNELS 3 Xrotation Yrotation Zrotation
										JOINT LeftHandThumb3
										{
											OFFSET 2.726913 -1.574387 1.574386
											CHANNELS 3 Xrotation Yrotation Zrotation
											JOINT LeftHandThumb4
											{
												OFFSET 3.941010 -2.275345 2.275342
												CHANNELS 3 Xrotation Yrotation Zrotation
												End Site
												{
													OFFSET -0.005798 5.087799 0.009903
												}
											}
										}
									}
								}
								JOINT LeftHandIndex1
								{
									OFFSET 24.424698 -1.985611 5.953459
									CHANNELS 3 Xrotation Yrotation Zrotation
									JOINT LeftHandIndex2
									{
										OFFSET 6.426697 0.000000 0.000000
										CHANNELS 3 Xrotation Yrotation Zrotation
										JOINT LeftHandIndex3
										{
											OFFSET 5.337898 0.000000 0.000000
											CHANNELS 3 Xrotation Yrotation Zrotation
											JOINT LeftHandIndex4
											{
												OFFSET 4.409401 0.000000 0.000000
												CHANNELS 3 Xrotation Yrotation Zrotation
												End Site
												{
													OFFSET 0.000000 4.409363 0.014373
												}
											}
										}
									}
								}
								JOINT LeftHandMiddle1
								{
									OFFSET 23.810104 0.000000 0.000000
									CHANNELS 3 Xrotation Yrotation Zrotation
									JOINT LeftHandMiddle2
									{
										OFFSET 7.176498 0.000000 0.000000
										CHANNELS 3 Xrotation Yrotation Zrotation
										JOINT LeftHandMiddle3
										{
											OFFSET 6.774902 0.000000 0.000000
											CHANNELS 3 Xrotation Yrotation Zrotation
											JOINT LeftHandMiddle4
											{
												OFFSET 5.403328 0.000000 0.000000
												CHANNELS 3 Xrotation Yrotation Zrotation
												End Site
												{
													OFFSET -0.027702 5.403244 0.017414
												}
											}
										}
									}
								}
								JOINT LeftHandRing1
								{
									OFFSET 22.908401 -0.839279 -6.020567
									CHANNELS 3 Xrotation Yrotation Zrotation
									JOINT LeftHandRing2
									{
										OFFSET 6.337502 0.000000 0.000000
										CHANNELS 3 Xrotation Yrotation Zrotation
										JOINT LeftHandRing3
										{
											OFFSET 5.779297 0.000000 0.000000
											CHANNELS 3 Xrotation Yrotation Zrotation
											JOINT LeftHandRing4
											{
												OFFSET 4.965698 0.000000 0.000000
												CHANNELS 3 Xrotation Yrotation Zrotation
												End Site
												{
													OFFSET 0.000000 4.965668 0.016186
												}
											}
										}
									}
								}
								JOINT LeftHandPinky1
								{
									OFFSET 20.037003 -1.530319 -10.950146
									CHANNELS 3 Xrotation Yrotation Zrotation
									JOINT LeftHandPinky2
									{
										OFFSET 5.254700 0.000000 0.000000
										CHANNELS 3 Xrotation Yrotation Zrotation
										JOINT LeftHandPinky3
										{
											OFFSET 4.810204 0.000000 0.000000
											CHANNELS 3 Xrotation Yrotation Zrotation
											JOINT LeftHandPinky4
											{
												OFFSET 3.647202 0.000000 0.000000
												CHANNELS 3 Xrotation Yrotation Zrotation
												End Site
												{
													OFFSET 0.000000 3.647186 0.011889
												}
											}
										}
									}
								}
							}
						}
					}
				}
				JOINT RightShoulder
				{
					OFFSET -15.141001 14.495407 -7.737500
					CHANNELS 3 Xrotation Yrotation Zrotation
					JOINT RightArm
					{
						OFFSET -9.308998 -2.777710 0.208500
						CHANNELS 3 Xrotation Yrotation Zrotation
						JOINT RightForeArm
						{
							OFFSET -29.972300 0.000000 0.000000
							CHANNELS 3 Xrotation Yrotation Zrotation
							JOINT RightHand
							{
								OFFSET -26.026505 0.000000 0.000000
								CHANNELS 3 Xrotation Yrotation Zrotation
								JOINT RightHandThumb1
								{
									OFFSET -12.240601 -7.148026 9.207092
									CHANNELS 3 Xrotation Yrotation Zrotation
									JOINT RightHandThumb2
									{
										OFFSET -4.138618 -2.389435 2.389433
										CHANNELS 3 Xrotation Yrotation Zrotation
										JOINT RightHandThumb3
										{
											OFFSET -2.726974 -1.574417 1.574421
											CHANNELS 3 Xrotation Yrotation Zrotation
											JOINT RightHandThumb4
											{
												OFFSET -3.941010 -2.275345 2.275343
												CHANNELS 3 Xrotation Yrotation Zrotation
												End Site
												{
													OFFSET 0.005814 5.087799 0.009927
												}
											}
										}
									}
								}
								JOINT RightHandIndex1
								{
									OFFSET -24.424698 -1.985657 5.953444
									CHANNELS 3 Xrotation Yrotation Zrotation
									JOINT RightHandIndex2
									{
										OFFSET -6.426697 0.000000 0.000000
										CHANNELS 3 Xrotation Yrotation Zrotation
										JOINT RightHandIndex3
										{
											OFFSET -5.337898 0.000000 0.000000
											CHANNELS 3 Xrotation Yrotation Zrotation
											JOINT RightHandIndex4
											{
												OFFSET -4.409401 0.000000 0.000000
												CHANNELS 3 Xrotation Yrotation Zrotation
												End Site
												{
													OFFSET 0.000000 4.409363 0.014408
												}
											}
										}
									}
								}
								JOINT RightHandMiddle1
								{
									OFFSET -23.810097 0.000000 0.000000
									CHANNELS 3 Xrotation Yrotation Zrotation
									JOINT RightHandMiddle2
									{
										OFFSET -7.176498 0.000000 0.000000
										CHANNELS 3 Xrotation Yrotation Zrotation
										JOINT RightHandMiddle3
										{
											OFFSET -6.774902 0.000000 0.000000
											CHANNELS 3 Xrotation Yrotation Zrotation
											JOINT RightHandMiddle4
											{
												OFFSET -5.403328 0.000000 0.000000
												CHANNELS 3 Xrotation Yrotation Zrotation
												End Site
												{
													OFFSET 0.027702 5.403244 0.017457
												}
											}
										}
									}
								}
								JOINT RightHandRing1
								{
									OFFSET -22.908302 -0.839325 -6.020576
									CHANNELS 3 Xrotation Yrotation Zrotation
									JOINT RightHandRing2
									{
										OFFSET -6.337502 0.000000 0.000000
										CHANNELS 3 Xrotation Yrotation Zrotation
										JOINT RightHandRing3
										{
											OFFSET -5.779297 0.000000 0.000000
											CHANNELS 3 Xrotation Yrotation Zrotation
											JOINT RightHandRing4
											{
												OFFSET -4.965698 0.000000 0.000000
												CHANNELS 3 Xrotation Yrotation Zrotation
												End Site
												{
													OFFSET 0.000000 4.965668 0.016226
												}
											}
										}
									}
								}
								JOINT RightHandPinky1
								{
									OFFSET -20.037003 -1.530334 -10.950259
									CHANNELS 3 Xrotation Yrotation Zrotation
									JOINT RightHandPinky2
									{
										OFFSET -5.254700 0.000000 0.000000
										CHANNELS 3 Xrotation Yrotation Zrotation
										JOINT RightHandPinky3
										{
											OFFSET -4.810204 0.000000 0.000000
											CHANNELS 3 Xrotation Yrotation Zrotation
											JOINT RightHandPinky4
											{
												OFFSET -3.647202 0.000000 0.000000
												CHANNELS 3 Xrotation Yrotation Zrotation
												End Site
												{
													OFFSET 0.000000 3.647186 0.011917
												}
											}
										}
									}
								}
							}
						}
					}
				}
			}
		}
	}
	JOINT LeftUpLeg
	{
		OFFSET 15.427100 -6.655098 0.678600
		CHANNELS 3 Xrotation Yrotation Zrotation
		JOINT LeftLeg
		{
			OFFSET 4.081073 -39.591068 13.024000
			CHANNELS 3 Xrotation Yrotation Zrotation
			JOINT LeftFoot
			{
				OFFSET -4.081074 -37.707932 -15.979700
				CHANNELS 3 Xrotation Yrotation Zrotation
				JOINT LeftToeBase
				{
					OFFSET 5.346399 -15.068900 20.645000
					CHANNELS 3 Xrotation Yrotation Zrotation
					JOINT LeftToe_End
					{
						OFFSET 2.754700 0.931300 11.300900
						CHANNELS 3 Xrotation Yrotation Zrotation
						End Site
						{
							OFFSET 0.000000 11.669021 0.000000
						}
					}
				}
			}
		}
	}
	JOINT RightUpLeg
	{
		OFFSET -15.569500 -6.655098 0.678600
		CHANNELS 3 Xrotation Yrotation Zrotation
		JOINT RightLeg
		{
			OFFSET -4.081825 -39.591045 13.023800
			CHANNELS 3 Xrotation Yrotation Zrotation
			JOINT RightFoot
			{
				OFFSET 4.081824 -37.707954 -15.979600
				CHANNELS 3 Xrotation Yrotation Zrotation
				JOINT RightToeBase
				{
					OFFSET -5.346400 -15.068900 20.645000
					CHANNELS 3 Xrotation Yrotation Zrotation
					JOINT RightToe_End
					{
						OFFSET -2.754700 0.931300 11.300900
						CHANNELS 3 Xrotation Yrotation Zrotation
						End Site
						{
							OFFSET 0.000000 11.669021 0.000000
						}
					}
				}
			}
		}
	}
}
MOTION
Frames: 4
Frame Time: 0.033333
-1.448718 47.187531 10.413809 -8.739315 4.011548 -8.666435 13.139856 0.854226 2.213664 5.819497 0.288558 1.327544 5.819163 0.324109 1.319486 7.928544 0.388317 2.987585 14.531238 4.782492 3.923719 -0.000002 -0.000001 0.000000 1.814454 -7.909738 -7.770246 -24.813413 -20.640499 -55.871931 -0.000045 -70.501267 -0.000054 42.838666 6.902551 41.272671 -8.652222 -8.471571 4.539979 7.706684 22.302881 -2.197744 2.879057 11.478395 0.539451 -0.000002 0.000004 0.000000 -1.558238 0.584262 -39.697210 0.386443 2.278468 -19.250157 0.005216 0.268433 -2.224943 0.000002 0.000001 0.000001 -0.908271 -0.655189 -23.675109 0.301318 2.018404 -16.979674 -0.000001 -0.000027 0.000249 0.000001 0.000000 -0.000001 -0.760150 -0.781597 -20.710623 0.524584 2.640641 -22.468271 0.000000 0.000528 -0.004239 -0.000001 0.000000 -0.000001 1.346681 9.455524 -8.069718 0.399191 -1.749793 -19.991911 0.106984 1.211502 -10.092430 -0.000000 0.000000 -0.000000 3.969566 9.102083 6.451609 -31.583744 33.775647 66.934180 0.000318 75.847249 -0.000331 49.798404 -28.170825 -21.658537 -7.857930 -8.673638 -4.874687 11.302762 -25.203195 1.195674 1.093171 -6.298132 -2.154927 -0.000001 0.000000 0.000002 0.164997 1.664097 -7.935406 0.758662 -3.163230 26.967414 0.058750 -0.903824 7.438004 -0.000001 -0.000000 -0.000000 0.041472 -3.975072 0.366857 0.952091 -3.517001 30.286370 0.002115 -0.302595 2.482248 -0.000000 -0.000000 0.000001 -1.033975 -4.304667 -12.016898 1.051889 -3.682238 31.875704 -0.019143 -0.478517 3.909626 -0.000000 -0.000000 0.000001 2.115300 -12.354111 9.599340 0.837621 -3.313607 28.365195 0.004648 -0.254788 2.091160 -0.000001 -0.000000 0.000001 -83.518119 -5.607257 2.505988 99.246364 -3.668733 0.778812 -8.384790 -6.177798 0.536564 0.913132 0.000000 -0.000003 -0.000000 0.000000 -0.000000 -66.624834 -9.270726 -14.421533 99.069558 6.106268 4.980875 -29.513790 5.637656 3.603437 -3.813524 -0.000002 -0.000003 -0.000000 0.000000 -0.000000 
-1.452856 47.181175 10.409464 -8.816634 4.078915 -8.632823 13.072333 0.893758 2.223635 5.789029 0.306601 1.332230 5.788734 0.342309 1.323719 7.918156 0.368755 3.022451 14.584460 4.723698 3.988405 0.000001 0.000000 0.000000 1.819604 -7.887944 -7.558695 -25.031580 -20.959236 -55.808537 0.000096 -70.628609 0.000082 42.280343 7.777707 39.320405 -7.993699 -7.314630 4.556882 8.034123 23.244525 -2.429011 2.753270 11.185446 0.598586 0.000004 0.000001 -0.000000 -1.764990 0.107147 -38.184026 0.374469 2.243889 -18.946697 0.006005 0.287983 -2.387021 0.000001 0.000001 0.000001 -0.775084 -0.732863 -21.216883 0.249909 1.841735 -15.453006 -0.000002 -0.000027 0.000250 0.000000 0.000000 0.000001 -0.308835 0.304494 -19.518568 0.561878 2.728973 -23.264357 -0.000001 0.000285 -0.002413 -0.000002 0.000000 -0.000000 1.583156 10.076879 -8.931861 0.412648 -1.713153 -20.314946 0.090315 1.113836 -9.271140 0.000000 -0.000000 0.000001 3.969696 9.119378 6.573665 -31.651131 33.380746 67.042036 -0.000127 76.020374 0.000141 49.352252 -28.575802 -20.834403 -7.890189 -8.632239 -4.865374 11.488503 -25.612923 1.240366 0.936000 -5.878069 -2.153137 0.000001 -0.000000 0.000000 0.165257 1.850630 -6.412012 0.753743 -3.153571 26.878171 0.055622 -0.879527 7.236812 -0.000000 0.000002 0.000000 0.241066 -3.584550 3.951856 0.814570 -3.270621 27.963814 0.002006 -0.212810 1.746177 0.000001 -0.000000 -0.000003 -0.793162 -4.368042 -9.495705 0.972864 -3.552286 30.623478 0.004952 -0.450206 3.691577 0.000002 0.000000 -0.000001 2.382586 -12.323528 10.984443 0.807135 -3.256620 27.833301 0.001819 -0.159438 1.308299 0.000002 -0.000000 -0.000002 -83.455384 -5.536670 2.471040 99.234671 -3.687352 0.786815 -8.345551 -6.185290 0.577866 0.917934 -0.000000 -0.000002 0.000000 0.000000 -0.000000 -66.517245 -9.219363 -14.439643 99.103361 6.083497 4.974519 -29.589168 5.598099 3.654317 -3.798846 -0.000001 0.000003 0.000000 0.000000 0.000000 
-1.463397 47.173523 10.394047 -8.939571 4.121889 -8.570728 12.999970 0.910294 2.237666 5.757555 0.313131 1.337637 5.757285 0.348840 1.329002 7.842824 0.356863 3.059513 14.376167 4.701404 4.024084 -0.000000 -0.000000 0.000000 1.824176 -7.886737 -7.431813 -25.138805 -21.154453 -55.803527 0.000043 -70.530596 0.000034 41.997648 8.431261 37.957530 -7.029111 -5.841317 5.105574 8.578268 24.763015 -2.818247 2.524871 10.613697 0.721806 -0.000002 0.000003 0.000001 -1.732039 0.064755 -37.611987 0.384750 2.273609 -19.207424 0.007085 0.312814 -2.592949 0.000002 -0.000000 0.000002 -0.616041 -0.459512 -20.252061 0.227957 1.760439 -14.754836 -0.000002 -0.000026 0.000249 0.000002 -0.000000 -0.000000 0.046008 1.295586 -19.151495 0.538767 2.674643 -22.774031 0.000004 -0.000929 0.007632 0.000001 0.000000 -0.000001 2.144802 11.653434 -10.456769 0.392969 -1.766949 -19.840844 0.066838 0.958982 -7.972731 0.000001 0.000001 -0.000001 3.969863 9.129210 6.639622 -31.799995 33.041966 67.200394 0.000021 76.117554 -0.000035 48.705509 -28.812962 -20.298965 -7.733046 -8.882493 -4.768830 11.872768 -26.453907 1.339840 0.834375 -5.605926 -2.151741 0.000001 0.000000 -0.000000 0.140405 1.860035 -5.124498 0.761917 -3.169608 27.026331 0.053965 -0.866414 7.128547 -0.000001 0.000000 -0.000000 0.367171 -3.494829 6.636456 0.757705 -3.161369 26.950217 0.002352 -0.175173 1.437511 0.000000 -0.000000 -0.000002 -0.647312 -4.703095 -7.528541 0.953824 -3.519978 30.314606 0.016035 -0.450657 3.701359 -0.000001 -0.000000 0.000001 2.751957 -12.105433 13.150613 0.777742 -3.200416 27.311408 0.000343 -0.069223 0.568018 0.000001 -0.000000 0.000001 -83.327502 -5.480222 2.437036 99.214986 -3.698829 0.788003 -8.327902 -6.171269 0.584995 0.919763 -0.000003 -0.000002 -0.000000 0.000000 -0.000000 -66.413863 -9.182472 -14.477687 99.139745 6.068056 4.958185 -29.613071 5.595796 3.672919 -3.795766 -0.000001 -0.000001 0.000000 0.000000 -0.000000 
-1.478273 47.161980 10.372639 -9.092982 4.150068 -8.488119 12.927374 0.909681 2.253129 5.726662 0.311000 1.342652 5.726391 0.346554 1.334136 7.723964 0.352002 3.096310 13.945766 4.706173 4.043612 0.000000 0.000001 -0.000000 1.828902 -7.902721 -7.362445 -25.111872 -21.277602 -55.807734 0.000126 -70.530234 0.000125 41.713266 8.997821 36.930666 -6.120912 -4.511435 5.920377 9.012007 25.922557 -3.128709 2.257851 9.923307 0.871060 -0.000002 -0.000002 -0.000002 -1.774612 -0.188562 -36.337235 0.399983 2.316811 -19.587620 0.008440 0.341706 -2.832713 -0.000001 -0.000000 0.000002 -0.509696 -0.274229 -19.482278 0.220134 1.730492 -14.498118 -0.000003 -0.000027 0.000250 0.000002 0.000000 0.000000 0.384722 2.277308 -18.137555 0.461033 2.481558 -21.046016 0.000002 -0.002065 0.017149 0.000001 -0.000000 0.000000 3.073392 14.483124 -11.919015 0.319004 -1.982915 -17.951648 0.043506 0.774357 -6.430387 0.000001 -0.000000 0.000000 3.970103 9.133373 6.663626 -32.000382 32.680679 67.370671 0.000118 76.232322 -0.000148 47.922209 -28.970391 -20.127418 -7.312192 -9.531821 -4.510839 12.534326 -27.876357 1.518401 0.941226 -5.892254 -2.152993 0.000000 -0.000003 -0.000001 0.102569 1.734710 -3.846996 0.781789 -3.208208 27.383678 0.053004 -0.858678 7.064375 -0.000000 0.000001 -0.000001 0.477945 -3.600990 8.726919 0.770393 -3.186165 27.179293 0.002316 -0.172533 1.415897 0.000000 0.000001 -0.000001 -0.550420 -5.341253 -5.913078 1.016737 -3.625235 31.324217 0.019992 -0.508203 4.174942 0.000001 -0.000000 0.000000 3.131375 -11.602679 15.937444 0.778884 -3.202624 27.331682 0.000077 -0.032920 0.270107 0.000002 0.000000 -0.000003 -83.161323 -5.431347 2.408171 99.193178 -3.707623 0.782434 -8.320036 -6.147893 0.569715 0.923929 -0.000002 -0.000001 -0.000000 0.000000 0.000000 -66.315529 -9.143908 -14.527956 99.182680 6.058773 4.936193 -29.600968 5.612554 3.680658 -3.802996 0.000005 -0.000004 0.000000 -0.000000 0.000000 
